<?xml version="1.0" encoding="UTF-8" standalone="no"?>
<!-- vim: set tabstop=2 shiftwidth=2 filetype=svg: -->
<svg version="1.1" viewBox="0 0 160 160" xmlns="http://www.w3.org/2000/svg" xmlns:dc="http://purl.org/dc/elements/1.1/" xmlns:cc="http://creativecommons.org/ns#" xmlns:rdf="http://www.w3.org/1999/02/22-rdf-syntax-ns#">
	<title>net.a2.shell</title>
	<path id="outline" fill="#dde"
	d="m 20.668,82.324
	a 40,32 0,0 1 74.082,-10.092
	a 25,25 0,0 1 34.92,18.754
	a 15,15 1,1 1 5.33,29.014
	h -105
	a 20,20 0,0 1 -9.332,-37.676
	z"/>
	<path id="fill" fill="#668"
	d="m 22.441 83.688
	a 38,30 0,0 1 71.643,-8.909
	a 23,23 0,0 1 33.886,19.287
	a 13,13 1,1 1 7.03,23.944
	h -105
	L 30,118
	a 18,18 0,0 1 -7.559,-34.332
	z"/>
	<g fill="#5f5">
		<path id="text-@" d="m26,98 h6 v2 h2 v6 h-2 v2 h-4 v-6 h2 v2 h2 v-4 h-6 v10 h8 v2 h-8 v-2 h-2 v-10 h2 z"/>
		<path id="text-a" d="m40,102 h6 v2 h2 v8 h-8 v-2 h6 v-2 h-6 v2 h-2 v-2 h2 v-2 h6 v-2 h-6 z"/>
		<path id="text-2" d="m54,98 h6 v2 h2 v4 h-2 v2 h-4 v2 h-2 v2 h8 v2 h-10 v-4 h2 v-2 h2 v-2 h4 v-4 h-6 v2 h-2 v-2 h2 z"/>
		<path id="text-c" d="m68,102 h8 v2 h-8 v6 h8 v2 h-8 v-2 h-2 v-6 h2 z"/>
		<path id="text-l" d="m82,98 h4 v12 h2 v2 h-6 v-2 h2 v-10 h-2 z"/>
		<path id="text-o" d="m96,102 h6 v2 h2 v6 h-2 v2 h-6 v-2 h-2 v-6 h2 v6 h6 v-6 h-6 z"/>
		<path id="text-u" d="m108,102 h2 v8 h4 v-2 h2 v-6 h2 v10 h-2 v-2 h-2 v2 h-4 v-2 h-2 z"/>
		<path id="text-d" d="m130,98 h2 v14 h-8 v-2 h-2 v-6 h2 v-2 h6 v2 h-6 v6 h6 z"/>
	</g>
	<metadata>
		<rdf:RDF>
			<cc:Work>
				<dc:format>image/svg+xml</dc:format>
				<dc:type rdf:resource="http://purl.org/dc/dcmitype/StillImage"/>
				<cc:license rdf:resource="http://creativecommons.org/licenses/by-sa/4.0/"/>
        <dc:title>net.a2.shell</dc:title>
        <dc:date>October 13, 2016</dc:date>
        <dc:creator>
					<cc:Agent>
						<dc:title>T. Joseph Carter</dc:title>
					</cc:Agent>
				</dc:creator>
			</cc:Work>
			<cc:License rdf:about="http://creativecommons.org/licenses/by-sa/4.0/">
				<cc:permits rdf:resource="http://creativecommons.org/ns#Reproduction"/>
				<cc:permits rdf:resource="http://creativecommons.org/ns#Distribution"/>
				<cc:requires rdf:resource="http://creativecommons.org/ns#Notice"/>
				<cc:requires rdf:resource="http://creativecommons.org/ns#Attribution"/>
				<cc:permits rdf:resource="http://creativecommons.org/ns#DerivativeWorks"/>
				<cc:requires rdf:resource="http://creativecommons.org/ns#ShareAlike"/>
			</cc:License>
		</rdf:RDF>
	</metadata>
</svg>
