<?xml version="1.0" encoding="UTF-8" standalone="no"?>
<!-- vim: set tabstop=2 shiftwidth=2 filetype=svg: -->
<svg version="1.1" viewBox="0 0 180 180" xmlns="http://www.w3.org/2000/svg" xmlns:dc="http://purl.org/dc/elements/1.1/" xmlns:cc="http://creativecommons.org/ns#" xmlns:rdf="http://www.w3.org/1999/02/22-rdf-syntax-ns#">
	<title>Your Files Are Served</title>
	<g id="document">
		<path id="document-outline" d="m111,19 h34 l13,13 v49 h-47 z" />
		<path id="document-page" fill="#fff" d="m112,20 h33 v12 h12 v48 h-45 z"/>
		<path id="document-corner" fill="#eff" d="m146,21 10,10 h-10 z"/>
	</g>
	<g id="app">
		<path id="app-diamond-outline" d="m92,20 h1 l30,30 v1 l-30,30 h-1 l-30,-30 v-1 z"/>
		<path id="app-diamond-fill" fill="#abe" d="m92,21 h1 l29,29 v1 l-29,29 h-1 l-29,-29 v-1 z"/>
		<path id="app-hand-outline" d="m105,47.4 c-2,0 -3,0.2 -4,0.6 -1.1,0.2 -1.5,0.6 -2,1 -1.8,1.5 -4.1,2.8 -5 5 -0.1,0.3 -0.2,0.7 0,1 s1,0.5 1,0.5 h-1 s-0.8,0.2 -1,0.5 c-0.4,0.6 -0.3,1.4 0,2 0.2,0.4 0.7,0.7 1,1 1.7,1.7 3,3.7 5,5 1,0.8 3,1.2 4,1.5 4,0.7 7,0.4 11,0.5 0,0 1,-0.1 1,0 1,0.2 3,1 3,1 v2 h6 v-13 h-6 v0.2 s-5,-5 -8,-7.2 c0,-0.4 -1,-0.8 -1,-1 -1,-0.4 -3,-0.6 -4,-0.6 z m-2,6 s1,0 1,0.1 1,0.2 1,0.5 c1,1.1 1,2.9 0,4 0,0.3 -1,0.4 -1,0.5 -1,0.2 -1,0.1 -2,0 s-1,-0.2 -2,-0.5 c-0.4,-0.2 -0.7,-0.6 -1,-1 -0.4,-0.5 -1,-1.5 -1,-1.5 s1.2,-1.1 2,-1.5 c1,-0.3 1,-0.4 2,-0.5 0,-0.1 1,-0.1 1,-0.1 z"/>
		<path id="app-hand-fill" fill="#fcb" d="m118,57 v9 l-3,-1 h-1 s-7,0.2 -11,-0.5 c-1,-0.3 -3,-0.7 -4,-1.5 -1.6,-1 -2.7,-2.7 -4,-4 -0.3,-0.3 -0.8,-0.6 -1,-1 s-0.2,-0.9 0-1.3 c0.2,-0.3 1,-0.5 1,-0.5 h2.7 s0.8,1 1.3,1.5 c0.3,0.3 0.6,0.8 1,1 1,0.3 1,0.4 2,0.5 s2,0.2 3,0 c0,-0.1 1,-0.2 1,-0.5 1,-1.6 1,-3.9 0,-5.5 0,-0.3 -1,-0.4 -1,-0.5 -1,-0.2 -2,-0.1 -3,0 s-1,0.2 -2,0.5 c-0.8,0.4 -2,1.5 -2,1.5 h-2 s-0.8,-0.2 -1,-0.5 v-0.2 c0.7,-1.7 2.5,-2.9 4,-4 0.6,-0.4 1,-0.8 2,-1 3,-0.6 6,-1 8,0 0,0.2 1,0.7 1,1 3,2.5 8,7.2 8,7.2 z"/>
		<path id="app-hand-pen" d="m90,55 -2,1 2,1 h3.5 l2,-2 h-5.5 z m7,0 l1.5,2 h13 v-2 z"/>
	</g>
	<g id="folder">
		<path id="folder-outline" d="m27,37 h19 a1,1 0 0,1 1,1 v2 a1,1 0 0,0 1,1 h30 a1,1 0 0,1 1,1 v39 h-57 v-39 a1,1 0 0,1 1,-1 h2 a1,1 0 0,0 1,-1 v-2 a1,1 0 0,1 1,-1 z"/>
		<path id="folder-fill" fill="#ffffaf" d="m28,38 h17 a1,1 0 0,1 1,1 v2 a1,1 0 0,0 1,1 h30 a1,1 0 0,1 1,1 v37 h-55 v-37 a1,1 0 0,1 1,-1 h2 a1,1 0 0,0 1,-1 v-2 a1,1 0 0,1 1,-1 z"/>
	</g>
	<g id="hand">
		<path id="hand-outline" d="m96,157 c0,-4 0.5,-6 1,-6 3,0 -1.3,-11 -5.7,-14 -1.6,-1 -7.1,-4 -12.3,-7 -10.5,-5 -13.7,-8 -17.1,-15 -1.3,-2 -3.1,-5 -4,-6 -0.9,0 -4,-4 -6.9,-8 -4.3,-5.8 -5,-7.3 -4,-8.5 1.6,-1.9 5.4,-1.9 7,0 1.1,1.4 1.4,1.4 2.4,0 0.8,-1 2.6,-1.4 6.1,-1.2 l4.9,0.2 3.3,6.5 3.3,7 v-7.3 c0,-5.8 0.2,-6.7 1.8,-6.7 2.9,0 5,3 5.7,8.3 0.4,2.7 1.7,5.7 2.8,7.7 2.5,3 11.6,7 16.7,7 4,0 9,-5 10,-9 1,-1 2,-4 2,-5.5 1,-1.7 2,-4.2 3,-5.8 1,-2.2 2,-2.7 5,-2.7 4,0 5,1.5 3,7.4 -2,5.6 -2,14.6 -1,33.6 1,18 2,19 4,19 s2,1 2,6 v5 h-33 v-5 z"/>
		<path id="hand-fill" fill="#fc9" d="m99,149 c0,-3 -3.3,-9 -6.2,-12 -1.2,-1 -6.3,-4 -11.3,-7 -12.2,-6 -15.2,-8 -18.2,-14 -1.4,-3 -3.5,-6 -4.7,-7 s-3.5,-4 -5.2,-6 c-1.6,-3 -3.7,-5.4 -4.7,-6.4 -0.9,-1.1 -1.7,-2.6 -1.7,-3.3 0,-1.8 5.5,-1.7 7,0.2 0.7,0.8 1.6,1.5 2.1,1.5 s0.9,-0.7 0.9,-1.5 c0,-1.1 1.2,-1.5 4.7,-1.5 h4.8 l3.3,7 c1.8,4 3.7,7 4.3,7 0.5,0 0.9,-3 0.9,-7 0,-5.3 0.3,-7 1.4,-7 2.2,0 3.4,2.1 4.1,7.3 0.5,2.7 1.8,5.7 3.3,7.7 3.1,4 11.9,8 17.2,8 4,0 10,-5 12,-11 1,-3 2,-5 2,-5.5 s1,-2.2 1,-3.8 c1,-2.3 2,-2.7 5,-2.7 s4,0.6 2,6.5 c-3,5.5 -2,23.5 0,48.5 l1,4 h-13 c-11.4,0 -12,0 -12,-2 z"/>
		<path id="hand-detail" d="m112,129 c0,-1 -2,-2 -4,-3 s-4,-3 -5,-4 l-1,-2 2,2 c1,1 3,2 5,3 2,2 6,5 5,5 s-1,0 -2,-1 z m-33.9,-8 c-2.2,-3 -5.3,-7 -6.9,-9 -3.3,-4 -7.7,-13.3 -8.6,-18.1 -0.4,-2.2 0.2,-1.3 1.7,2.6 1.3,3.3 2.7,6.5 3.1,7.5 0.3,1 1.9,2 3.6,3 l2.9,2 0.4,-4 c0.2,-2 0.4,0 0.5,4 0.2,6 0.4,7 4.2,12 2.2,3 3.8,5 3.5,5 -0.2,0 -2.2,-2 -4.4,-5 z m-6.1,-12 c-3.2,-3 -3.8,-2 -0.9,1 1.4,2 2.6,2 2.8,2 0.2,-1 -0.6,-2 -1.9,-3 z m14.1,6 c-3.3,-3 -4.6,-7 -3.8,-10 0.3,-1 0.5,0 0.6,1 0.1,4 2.5,8 5.7,11 1.5,1 2.2,2 1.6,2 -0.5,0 -2.4,-2 -4.1,-4 z m-28.5,-9 c-0.9,-2 -1.6,-5 -1.4,-8 0.1,-2.4 0.3,-3.9 0.6,-3.2 0.2,0.7 0.9,0.9 1.5,0.5 0.7,-0.4 0.7,0 -0.1,0.9 -0.7,0.9 -1.2,3.2 -1,4.8 0.2,3 0.7,3 2.3,3 1.5,0 1.7,0 0.6,1 -0.8,0 -1.1,2 -0.6,3 1,3 -0.1,2 -1.9,-2 z m16.4,-9.4 c0,-0.2 0.7,-0.7 1.6,-1 0.8,-0.3 1.2,-0.2 0.9,0.4 -0.6,1 -2.5,1.4 -2.5,0.6 z m-26,-3.1 c-0.7,-0.9 -1.1,-1.7 -0.9,-2 0.3,-0.2 1,0.5 1.7,1.5 1.4,2.4 1,2.6 -0.8 0.5 z m10.1,-1.1 c0,-1.1 0.3,-1.4 0.6,-0.6 0.3,0.7 0.2,1.6 -0.1,1.9 -0.3,0.4 -0.6,-0.2 -0.5,-1.3 z m18,0 c0,-1.1 0.3,-1.4 0.6,-0.6 0.3,0.7 0.2,1.6 -0.1,1.9 -0.3,0.4 -0.6,-0.2 -0.5,-1.3 z"/>
	</g>
	<g id="tray">
		<path id="tray-outline" d="m15,80 h150 v3 l-3,3 h-1 l-6,6 h-130 l-6,-6 h-1 l-3,-3 z"/>
		<path id="tray-fill" fill="#986" d="m16,81 h148 v2 l-2,2 h-144 l-2,-2 v-2 z m4,5 h140 l-5,5 h-130 l-5,-5 z"/>
	</g>
	<metadata>
		<rdf:RDF>
			<cc:Work>
				<dc:format>image/svg+xml</dc:format>
				<dc:type rdf:resource="http://purl.org/dc/dcmitype/StillImage"/>
				<cc:license rdf:resource="https://creativecommons.org/licenses/by-sa/4.0/"/>
        <dc:title>Your Files Are Served</dc:title>
        <dc:date>October 6, 2016</dc:date>
        <dc:creator>
					<cc:Agent>
						<dc:title>T. Joseph Carter</dc:title>
					</cc:Agent>
				</dc:creator>
			</cc:Work>
			<cc:License rdf:about="https://creativecommons.org/licenses/by-sa/4.0/">
				<cc:permits rdf:resource="https://creativecommons.org/ns#Reproduction"/>
				<cc:permits rdf:resource="https://creativecommons.org/ns#Distribution"/>
				<cc:requires rdf:resource="https://creativecommons.org/ns#Notice"/>
				<cc:requires rdf:resource="https://creativecommons.org/ns#Attribution"/>
				<cc:permits rdf:resource="https://creativecommons.org/ns#DerivativeWorks"/>
				<cc:requires rdf:resource="https://creativecommons.org/ns#ShareAlike"/>
			</cc:License>
		</rdf:RDF>
	</metadata>
</svg>
