<?xml version="1.0" encoding="UTF-8" standalone="yes"?>
<!-- vim: set tabstop=2 shiftwidth=2 filetype=svg: -->
<svg version="1.1" viewBox="0 0 1400 1400" xmlns="http://www.w3.org/2000/svg" xmlns:dc="http://purl.org/dc/elements/1.1/" xmlns:cc="https://creativecommons.org/ns#" xmlns:rdf="http://www.w3.org/1999/02/22-rdf-syntax-ns#">
	<title>The Raspple</title>
	<path id="raspple-outline" d="m710,157 c-4,9 -6,19 -10,28 -5,-12 -41,-65 -54,-80 -92,-113.88 -334,-75.3 -408,-5.8 7,134.8 28,224.8 119,295.8 12,7 24,12 36,16 -12,10 -27,17 -40,27 -30,23 -53,53 -66,89 -7,21 -11,42 -13,64 -1,10 1,23 -2,32 -6,13 -15,19 -26,28 -7,6 -14,13 -21,20 -25,29 -42,66 -49,103 -8,43 -2,90 19,129 6,10 12,20 19,30 4,5 11,11 13,17 5,31 23,70 28,90 2,10 3,20 5,30 5,20 12,30 21,50 32,40 70,80 117,100 36,30 85,60 130,80 20,10 40,30 57,40 50,30 110,40 167,30 58,-10 100,-50 117,-70 19,-10 49,-20 63,-30 l51,-40 c97,-40 167,-120 167,-220 -120,-10 -199,-132 -201,-212 0,-115 61,-208 161,-215 -20,-63 -30,-125 -80,-156 -10,-5 -10,-11 -20,-15 10,-6 20,-6 30,-13 90,-85 130,-207 130,-304.6 -120,-76.9 -377,-85.2 ,-460,62.6 z"/>
	<g id="leaf-green" fill="#64ba4d">
		<path id="leaf-left-green" d="m462,62 c2,5 8,10 8,16 0,3 -2,5 -3,8 -20,-9 -38,-20 -60,-23 3,5 8,8 12,13 2,2 3,4 2,7 -2,6 -10,1 -14,0 -14,-4 -29,-9 -43,-9 3,4 14,13 10,19 -3,5 -13,0 -17,-1 -12,-3 -25,-5 -37,-5 -5,0 -11,1 -16,2 4,6 11,11 15,17 -6,1 -11,1 -17,1 -14,1 -28,1 -43,2 l89,37 c24,10 49,18 74,28 37,15 73,32 107,52 24,14 48,29 70,45 6,5 13,10 19,15 2,2 6,5 9,5 5,0 11,-5 15,-8 15,-10 26,-26 29,-44 6,-37 -12,-73 -32,-103 -8,-11 -16,-24 -28,-32 -2,7 -4,13 -7,19 -15,-15 -27,-33 -44,-45 0,6 2,11 -1,17 -1,2 -3,5 -5,5 -4,0 -8,-7 -11,-10 -8,-8 -17,-17 -28,-21 1,5 5,20 -5,21 -4,0 -11,-7 -14,-10 -10,-7 -22,-17 -34,-18 z"/>
		<path id="leaf-green-right" d="m943,60 c-12,3 -23,10 -33,18 -4,3 -10,10 -15,11 -3,0 -4,-2 -6,-4 -4,-6 -1,-12 1,-18 l-1,1 c-11,5 -21,13 -29,22 -3,3 -7,10 -11,10 -3,0 -4,-3 -5,-5 -2,-5 -1,-11 -1,-17 -9,6 -17,15 -24,23 -6,7 -13,14 -19,22 -4,-6 -6,-12 -8,-19 -10,7 -18,19 -25,29 -21,30 -40,68 -34,106 3,18 14,34 29,44 4,3 10,8 15,8 4,0 7,-4 10,-6 7,-5 13,-10 20,-15 24,-18 50,-34 76,-49 35,-20 72,-37 110,-52 18,-7 36,-12 54,-20 l97,-41 c-5,-2 -12,-1 -18,-1 -13,0 -28,1 -41,-2 5,-6 11,-11 15,-17 -6,0 -12,-2 -18,-2 -12,0 -24,2 -35,5 -4,1 -14,6 -17,1 -4,-6 7,-14 10,-19 -14,0 -30,5 -44,9 -4,1 -13,6 -13,-1 s11,-14 14,-19 c-22,3 -40,14 -60,23 -1,-3 -2,-5 -3,-8 0,-6 6,-12 9,-17 z"/>
	</g>
	<g id="leaf-yellow" fill="#fcb83b">
		<path id="leaf-left-yellow" d="m259,109 c3,7 8,12 12,19 5,9 8,18 11,28 -9,2 -18,0 -27,0 4,10 12,18 20,26 6,6 14,10 18,18 -10,3 -17,3 -28,0 6,20 29,30 40,46 -8,2 -15,2 -24,2 12,17 32,27 48,40 -9,2 -16,3 -25,3 5,7 13,12 21,17 12,7 25,15 38,20 v2 c-9,2 -15,5 -24,4 4,5 11,8 17,11 14,6 30,12 45,15 -5,6 -10,9 -17,11 6,5 14,6 22,8 16,3 31,3 47,6 -3,7 -9,12 -16,15 4,2 9,1 13,1 9,0 17,0 26,-1 37,-4 75,-12 103 -38,10 -9,18 -21,22 -34,1 -4,4 -9,3 -13,-1 -3,-4 -6,-7 -8,-5 -5,-10 -11,-16 -15,-17 -15,-35 -30,-54 -43,-62 -44,-130,-83 -201,-112 l-67,-28 z"/>
		<path id="leaf-right-yellow" d="m1143,109 l-108,45 c-18,8 -35,18 -52,28 -36,20 -71,41 -105,65 -19,14 -38,29 -56,44 -6,5 -11,10 -16,15 -2,2 -6,5 -7,8 -2,4 1,9 3,13 5,13 13,26 23,35 38,35 91,38 140,38 -6,-4 -12,-8 -15,-15 23,-5 47,-4 69,-13 -6,-4 -12,-6 -17,-12 15,-4 32,-9 46,-16 5,-2 12,-5 15,-10 -9,1 -15,-2 -23,-4 13,-7 26,-15 38,-22 8,-5 16,-10 21,-17 -9,0 -16,-1 -25,-3 16,-13 36,-23 48,-40 -9,0 -15,0 -24,-2 3,-5 8,-9 13,-13 10,-9 23,-20 27,-33 -10,3 -18,3 -28,0 4,-8 12,-12 18,-18 8,-7 16,-16 20,-26 -9,0 -18,2 -27,0 3,-10 6,-19 11,-28 4,-7 9,-13 11,-19 z"/>
	</g>
	<g id="orange" fill="#f48230" >
		<path id="orange-1" d="m 365,480 c -34,34 -52,90 -46,138 46,-3 235,-137 213,-180 -47,-28 -138,13 -167,42 z"/>
		<path id="orange-2" d="m 567,507 c 33,55 119,62 170,55 45,-4 106,-35 100,-75 -12,-47 -72,-72 -112,-79 -70,-6 -173,51 -158,99 z"/>
		<path id="orange-3" d="m 896,434 c -7,0 -41,4 -43,9 24,55 92,108 137,141 20,-16 40,-29 70,-38 -30,-75 -93,-111 -164,-112 z"/>
	</g>
	<g id="red" fill="#df3c43">
		<path id="red-1" d="m 304,668 c -31,2 -69,59 -78,81 -21,35 -2,192 51,176 41,1 89,-255 27,-257 z"/>
		<path id="red-2" d="m 540,582 c -69,7 -131,60 -150,122 -15,105 26,196 132,184 80,-10 144,-86 148,-166 5,-75 -58,-148 -129,-139 z"/>
		<path id="red-3" d="m 791,590 c -56,32 -70,104 -54,163 19,70 90,133 165,129 -27,-91 -1,-201 54,-265 -51,-38 -112,-58 -165,-27 z"/>
	</g>
	<g id="purple" fill="#954196">
		<path id="purple-1" d="m 324,941 c -48,35 -22,119 -4,159 28,60 107,100 159,90 56,-10 38,-80 32,-110 C 481,1010 405,913 324,941 z"/>
		<path id="purple-2" fill="#954196" d="m 702,862 c -130,-8 -197,158 -110,238 78,70 231,50 256,-60 25,-93 -63,-176 -146,-178 z"/>
		<path id="purple-3" fill="#954196" d="m 947,968 c -48,52 -88,122 -77,192 26,80 160,0 190,-40 20,-20 30,-40 30,-60 -50,-10 -106,-40 -143,-92 z"/>
	</g>
	<path id="blue" fill="#199fda" d="m 593,1210 c -13,10 -31,10 -39,30 -7,70 124,100 162,90 36,0 140,-40 130,-90 -2,-20 -17,-20 -29,-30 -66,-30 -160,-30 -224,0 z"/>
	<metadata>
		<rdf:RDF>
			<cc:Work>
				<dc:format>image/svg+xml</dc:format>
				<dc:type rdf:resource="http://purl.org/dc/dcmitype/StillImage"/>
				<cc:license rdf:resource="https://creativecommons.org/licenses/by-sa/4.0/"/>
        <dc:title>The Raspple</dc:title>
        <dc:date>October 4, 2016</dc:date>
        <dc:creator>
					<cc:Agent>
						<dc:title>T. Joseph Carter</dc:title>
					</cc:Agent>
				</dc:creator>
			</cc:Work>
			<cc:License rdf:about="https://creativecommons.org/licenses/by-sa/4.0/">
				<cc:permits rdf:resource="https://creativecommons.org/ns#Reproduction"/>
				<cc:permits rdf:resource="https://creativecommons.org/ns#Distribution"/>
				<cc:requires rdf:resource="https://creativecommons.org/ns#Notice"/>
				<cc:requires rdf:resource="https://creativecommons.org/ns#Attribution"/>
				<cc:permits rdf:resource="https://creativecommons.org/ns#DerivativeWorks"/>
				<cc:requires rdf:resource="https://creativecommons.org/ns#ShareAlike"/>
			</cc:License>
		</rdf:RDF>
	</metadata>
</svg>
